<?xml version="1.0" encoding="utf-8"?>
<!-- Generator: Adobe Illustrator 22.1.0, SVG Export Plug-In . SVG Version: 6.00 Build 0)  -->
<svg version="1.1" id="Layer_1" xmlns="http://www.w3.org/2000/svg" xmlns:xlink="http://www.w3.org/1999/xlink" x="0px" y="0px"
	 viewBox="0 0 498.9 175.7" style="enable-background:new 0 0 498.9 175.7;" xml:space="preserve">
<style type="text/css">
	.st0{fill:#2A0A55;}
	.st1{clip-path:url(#SVGID_2_);}
	.st2{clip-path:url(#SVGID_4_);fill:#FFFFFF;}
	.st3{clip-path:url(#SVGID_4_);fill:none;stroke:#FFFFFF;stroke-width:1.2171;stroke-miterlimit:10;}
	.st4{clip-path:url(#SVGID_4_);fill:none;stroke:#FFFFFF;stroke-width:0.3043;stroke-miterlimit:10;}
	.st5{clip-path:url(#SVGID_4_);fill:none;stroke:#FFFFFF;stroke-width:0.6085;stroke-miterlimit:10;}
</style>
<rect class="st0" width="498.9" height="175.7"/>
<g>
	<g>
		<defs>
			<rect id="SVGID_1_" x="49.8" y="31.2" width="399.2" height="119.3"/>
		</defs>
		<clipPath id="SVGID_2_">
			<use xlink:href="#SVGID_1_"  style="overflow:visible;"/>
		</clipPath>
		<g class="st1">
			<defs>
				<rect id="SVGID_3_" x="49.8" y="31.2" width="399.2" height="119.3"/>
			</defs>
			<clipPath id="SVGID_4_">
				<use xlink:href="#SVGID_3_"  style="overflow:visible;"/>
			</clipPath>
			<path class="st2" d="M112.3,47.3c-22.5,0-40.7,18.2-40.7,40.7c0,22.5,18.2,40.7,40.7,40.7c22.5,0,40.7-18.2,40.7-40.7
				C153.1,65.5,134.8,47.3,112.3,47.3 M91.1,62c2.1,0,3.8,1.7,3.8,3.8c0,2.1-1.7,3.8-3.8,3.8c-2.1,0-3.8-1.7-3.8-3.8
				C87.3,63.6,89,62,91.1,62 M104.9,102.3c-1.5,0.7-3.3,1-5.1,1c-6.4,0-11.6-5.2-11.6-11.6V74h5.9v16.6c0,3.9,3.2,7.1,7.1,7.1
				c1.3,0,2.5-0.2,3.7-0.7V102.3z M115.3,102.5h-5.9V73.9h5.9V102.5z M123.5,78.8c-1.3,0-2.5,0.2-3.7,0.7v-5.3c1.5-0.7,3.3-1,5.1-1
				c6.4,0,11.6,5.2,11.6,11.6v17.7h-5.9V85.9C130.6,82,127.4,78.8,123.5,78.8 M133.6,114.6c-2.1,0-3.8-1.7-3.8-3.8
				c0-2.1,1.7-3.8,3.8-3.8c2.1,0,3.8,1.7,3.8,3.8C137.4,112.9,135.7,114.6,133.6,114.6"/>
			<path class="st3" d="M112.3,47.3c-22.5,0-40.7,18.2-40.7,40.7c0,22.5,18.2,40.7,40.7,40.7c22.5,0,40.7-18.2,40.7-40.7
				C153.1,65.5,134.8,47.3,112.3,47.3z M91.1,62c2.1,0,3.8,1.7,3.8,3.8c0,2.1-1.7,3.8-3.8,3.8c-2.1,0-3.8-1.7-3.8-3.8
				C87.3,63.6,89,62,91.1,62z M104.9,102.3c-1.5,0.7-3.3,1-5.1,1c-6.4,0-11.6-5.2-11.6-11.6V74h5.9v16.6c0,3.9,3.2,7.1,7.1,7.1
				c1.3,0,2.5-0.2,3.7-0.7V102.3z M115.3,102.5h-5.9V73.9h5.9V102.5z M123.5,78.8c-1.3,0-2.5,0.2-3.7,0.7v-5.3c1.5-0.7,3.3-1,5.1-1
				c6.4,0,11.6,5.2,11.6,11.6v17.7h-5.9V85.9C130.6,82,127.4,78.8,123.5,78.8z M133.6,114.6c-2.1,0-3.8-1.7-3.8-3.8
				c0-2.1,1.7-3.8,3.8-3.8c2.1,0,3.8,1.7,3.8,3.8C137.4,112.9,135.7,114.6,133.6,114.6z"/>
			<path class="st2" d="M157,88.5c0-8.3,6.4-15,14.3-15c2,0,3.9,0.4,5.6,1.2v5.6c-1.4-0.9-3.2-1.5-5-1.5c-5.2,0-9.5,4.4-9.5,9.8
				c0,5.4,4.2,9.8,9.5,9.8c5.2,0,9.5-4.4,9.5-9.8V61.4h5.8v41.2h-5.8v-3.4c-2.6,2.7-6.1,4.3-10.1,4.3C163.4,103.5,157,96.8,157,88.5
				"/>
			<rect x="193.6" y="73.8" class="st2" width="6" height="29.2"/>
			<path class="st2" d="M200.4,65.4c0,2.1-1.7,3.8-3.8,3.8c-2.1,0-3.8-1.7-3.8-3.8c0-2.1,1.7-3.8,3.8-3.8
				C198.7,61.6,200.4,63.3,200.4,65.4"/>
			<polygon class="st2" points="221.4,88.4 224.7,95.6 235,73.7 228.2,73.7 			"/>
			<polygon class="st2" points="224.4,103 217.7,103 203.9,73.7 210.7,73.7 			"/>
			<polygon class="st2" points="254.7,92.1 251.4,99.4 239.4,73.7 246.1,73.7 			"/>
			<path class="st2" d="M253.8,108.2c0,0,0.2-0.4,0.6-1l15.4-33.5l-6.7,0l-13.8,30.4c-1.7,3.6-5.9,4.9-9.6,3.5
				c-1.2-0.4-2.4-1.6-2.4-1.6l-2.8,4.5c1.1,1.3,2.3,2.2,4.1,2.9C244.7,115.8,250.7,112.8,253.8,108.2"/>
			<path class="st2" d="M288.1,100.3l1.6-2.4c2.4,1.7,5.2,2.3,8.1,2.3c4,0,6.7-1.9,6.7-4.8c0-2.7-2.5-4.2-5.9-5.1l-3.1-0.9
				c-4.4-1.2-7.5-3-7.5-7.2c0-5,4-8.2,10-8.2c3.8,0,6.9,0.8,9.6,2.6l-1.7,2.6c-2.4-1.5-5-2.1-7.7-2.1c-3.7,0-6.3,1.8-6.3,4.6
				c0,2.6,2.2,3.8,5.2,4.7l3.1,0.9c4.3,1.2,8.2,3.3,8.2,8c0,4.9-4.1,8.2-10.7,8.2C293.8,103.3,290.3,102.3,288.1,100.3"/>
			<path class="st4" d="M288.1,100.3l1.6-2.4c2.4,1.7,5.2,2.3,8.1,2.3c4,0,6.7-1.9,6.7-4.8c0-2.7-2.5-4.2-5.9-5.1l-3.1-0.9
				c-4.4-1.2-7.5-3-7.5-7.2c0-5,4-8.2,10-8.2c3.8,0,6.9,0.8,9.6,2.6l-1.7,2.6c-2.4-1.5-5-2.1-7.7-2.1c-3.7,0-6.3,1.8-6.3,4.6
				c0,2.6,2.2,3.8,5.2,4.7l3.1,0.9c4.3,1.2,8.2,3.3,8.2,8c0,4.9-4.1,8.2-10.7,8.2C293.8,103.3,290.3,102.3,288.1,100.3z"/>
			<rect x="313.6" y="61.4" class="st2" width="3.9" height="41.4"/>
			<rect x="313.6" y="61.4" class="st4" width="3.9" height="41.4"/>
			<path class="st2" d="M323.3,66.7c0-1.5,1.1-2.6,2.6-2.6c1.4,0,2.6,1.1,2.6,2.6c0,1.4-1.1,2.6-2.6,2.6
				C324.5,69.3,323.3,68.1,323.3,66.7 M324,73.9h3.9v28.9H324V73.9z"/>
			<path class="st4" d="M323.3,66.7c0-1.5,1.1-2.6,2.6-2.6c1.4,0,2.6,1.1,2.6,2.6c0,1.4-1.1,2.6-2.6,2.6
				C324.5,69.3,323.3,68.1,323.3,66.7z M324,73.9h3.9v28.9H324V73.9z"/>
			<path class="st2" d="M333.5,88.4c0-8.8,5.8-14.7,14.6-14.7c3.6,0,6.6,1.1,9.2,3.1l-2.2,2.7c-2-1.7-4.2-2.4-7-2.4
				c-6.3,0-10.5,4.5-10.5,11.4c0,6.8,4.2,11.4,10.6,11.4c2.9,0,5.7-1,7.7-3.1l2.2,2.6c-2.6,2.5-6.2,3.7-10.2,3.7
				C339.3,103.1,333.5,97.2,333.5,88.4"/>
			<path class="st4" d="M333.5,88.4c0-8.8,5.8-14.7,14.6-14.7c3.6,0,6.6,1.1,9.2,3.1l-2.2,2.7c-2-1.7-4.2-2.4-7-2.4
				c-6.3,0-10.5,4.5-10.5,11.4c0,6.8,4.2,11.4,10.6,11.4c2.9,0,5.7-1,7.7-3.1l2.2,2.6c-2.6,2.5-6.2,3.7-10.2,3.7
				C339.3,103.1,333.5,97.2,333.5,88.4z"/>
			<path class="st2" d="M386.6,89.6H364c0.5,6.2,3.8,10.2,9.4,10.2c3.8,0,7-1.9,9.2-4.8l2.9,1.7c-2.7,4.1-7.1,6.3-12.1,6.3
				c-8.1,0-13.6-5.9-13.6-14.7c0-8.8,5.4-14.7,13.4-14.7c8,0,13.3,5.7,13.3,14.4C386.7,88.4,386.7,89.2,386.6,89.6 M364,86.9h18.6
				c-0.3-6.3-3.9-10.3-9.3-10.3S364.4,80.6,364,86.9"/>
			<path class="st4" d="M386.6,89.6H364c0.5,6.2,3.8,10.2,9.4,10.2c3.8,0,7-1.9,9.2-4.8l2.9,1.7c-2.7,4.1-7.1,6.3-12.1,6.3
				c-8.1,0-13.6-5.9-13.6-14.7c0-8.8,5.4-14.7,13.4-14.7c8,0,13.3,5.7,13.3,14.4C386.7,88.4,386.7,89.2,386.6,89.6z M364,86.9h18.6
				c-0.3-6.3-3.9-10.3-9.3-10.3S364.4,80.6,364,86.9z"/>
			<path class="st2" d="M407.5,95c0.8,1.6,1.9,2.8,3.2,3.6c1.3,0.8,3.1,1.3,5.2,1.3c1.2,0,2.3-0.2,3.2-0.5c1-0.3,1.8-0.8,2.5-1.4
				c0.7-0.6,1.3-1.4,1.7-2.3c0.4-0.9,0.6-1.9,0.6-3.1c0-1.3-0.3-2.4-0.8-3.3c-0.5-0.9-1.2-1.6-2.1-2.2c-0.9-0.5-1.9-0.9-3.1-1.2
				c-1.2-0.2-2.5-0.4-3.8-0.4H412v-3h2.2c1.3,0,2.4-0.1,3.5-0.4c1.1-0.2,2-0.6,2.8-1.2c0.8-0.6,1.4-1.3,1.9-2.1
				c0.5-0.9,0.7-1.9,0.7-3.2c0-1-0.2-1.8-0.6-2.6c-0.4-0.7-0.9-1.4-1.5-1.9c-0.6-0.5-1.4-0.9-2.3-1.2c-0.9-0.3-1.8-0.4-2.8-0.4
				c-2.1,0-3.8,0.5-5.2,1.4c-1.4,1-2.4,2.4-2.9,4.2l-3-0.9c0.3-1.2,0.8-2.2,1.5-3.2c0.7-1,1.5-1.8,2.5-2.4c1-0.7,2.1-1.2,3.3-1.5
				c1.2-0.4,2.4-0.5,3.7-0.5c1.4,0,2.8,0.2,4.1,0.6c1.3,0.4,2.4,0.9,3.4,1.7c1,0.7,1.7,1.6,2.3,2.7c0.6,1.1,0.8,2.3,0.8,3.7
				c0,2.3-0.6,4.2-1.8,5.6c-1.2,1.4-2.7,2.4-4.7,3.1c2.2,0.6,4,1.6,5.4,3c1.4,1.4,2.1,3.3,2.1,5.7c0,1.6-0.3,3.1-0.9,4.3
				c-0.6,1.3-1.5,2.3-2.5,3.2c-1.1,0.9-2.3,1.5-3.7,2c-1.4,0.5-2.9,0.7-4.5,0.7c-2.5,0-4.8-0.6-6.7-1.7c-1.9-1.1-3.3-2.7-4.2-4.8
				L407.5,95z"/>
			<path class="st5" d="M407.5,95c0.8,1.6,1.9,2.8,3.2,3.6c1.3,0.8,3.1,1.3,5.2,1.3c1.2,0,2.3-0.2,3.2-0.5c1-0.3,1.8-0.8,2.5-1.4
				c0.7-0.6,1.3-1.4,1.7-2.3c0.4-0.9,0.6-1.9,0.6-3.1c0-1.3-0.3-2.4-0.8-3.3c-0.5-0.9-1.2-1.6-2.1-2.2c-0.9-0.5-1.9-0.9-3.1-1.2
				c-1.2-0.2-2.5-0.4-3.8-0.4H412v-3h2.2c1.3,0,2.4-0.1,3.5-0.4c1.1-0.2,2-0.6,2.8-1.2c0.8-0.6,1.4-1.3,1.9-2.1
				c0.5-0.9,0.7-1.9,0.7-3.2c0-1-0.2-1.8-0.6-2.6c-0.4-0.7-0.9-1.4-1.5-1.9c-0.6-0.5-1.4-0.9-2.3-1.2c-0.9-0.3-1.8-0.4-2.8-0.4
				c-2.1,0-3.8,0.5-5.2,1.4c-1.4,1-2.4,2.4-2.9,4.2l-3-0.9c0.3-1.2,0.8-2.2,1.5-3.2c0.7-1,1.5-1.8,2.5-2.4c1-0.7,2.1-1.2,3.3-1.5
				c1.2-0.4,2.4-0.5,3.7-0.5c1.4,0,2.8,0.2,4.1,0.6c1.3,0.4,2.4,0.9,3.4,1.7c1,0.7,1.7,1.6,2.3,2.7c0.6,1.1,0.8,2.3,0.8,3.7
				c0,2.3-0.6,4.2-1.8,5.6c-1.2,1.4-2.7,2.4-4.7,3.1c2.2,0.6,4,1.6,5.4,3c1.4,1.4,2.1,3.3,2.1,5.7c0,1.6-0.3,3.1-0.9,4.3
				c-0.6,1.3-1.5,2.3-2.5,3.2c-1.1,0.9-2.3,1.5-3.7,2c-1.4,0.5-2.9,0.7-4.5,0.7c-2.5,0-4.8-0.6-6.7-1.7c-1.9-1.1-3.3-2.7-4.2-4.8
				L407.5,95z"/>
		</g>
	</g>
</g>
</svg>
