<svg width="40" height="40" viewBox="0 0 40 40" fill="none" xmlns="http://www.w3.org/2000/svg">
<g clip-path="url(#clip0_1637_5187)">
<path d="M20 38.8333L19.6326 39.1725L20 39.5705L20.3674 39.1725L20 38.8333ZM20 38.8333C20.3674 39.1725 20.3675 39.1724 20.3677 39.1722L20.3682 39.1716L20.3702 39.1694L20.3777 39.1612L20.4066 39.1297C20.4318 39.1021 20.469 39.0612 20.5172 39.0077C20.6138 38.9007 20.7548 38.7431 20.934 38.5394C21.2924 38.1319 21.8035 37.5399 22.4164 36.7993C23.6419 35.3185 25.2766 33.2412 26.9124 30.8557C28.5471 28.4716 30.1893 25.7707 31.4242 23.0435C32.6564 20.3225 33.5 17.5392 33.5 15C33.5 7.55219 27.4478 1.5 20 1.5C12.5522 1.5 6.5 7.55219 6.5 15C6.5 17.5392 7.34364 20.3225 8.57577 23.0435C9.81074 25.7707 11.4529 28.4716 13.0876 30.8557C14.7234 33.2412 16.3581 35.3185 17.5836 36.7993C18.1965 37.5399 18.7076 38.1319 19.066 38.5394C19.2452 38.7431 19.3862 38.9007 19.4828 39.0077C19.531 39.0612 19.5682 39.1021 19.5934 39.1297L19.6223 39.1612L19.6298 39.1694L19.6318 39.1716L19.6323 39.1722C19.6325 39.1724 19.6326 39.1725 20 38.8333Z" fill="#DC0032" stroke="white"/>
<path d="M22.7258 15.4196C22.6599 15.4587 22.5565 15.4557 22.4922 15.4151L22.1134 15.1857C22.0826 15.1662 22.0543 15.135 22.0329 15.0976C22.0317 15.0954 22.0304 15.0932 22.0292 15.091C22.005 15.0508 21.9912 15.0084 21.9898 14.9694L21.9802 14.5194C21.9773 14.4436 22.0264 14.3511 22.0926 14.3118L26.6461 11.6083L20.2562 8.05916C20.1859 8.01938 20.0931 8.00017 20.0002 8C19.9072 7.99983 19.8142 8.01955 19.7438 8.05916L13.3538 11.6084L20.5122 15.8552C20.5786 15.8922 20.629 15.98 20.629 16.0592V22.2545C20.629 22.3323 20.5744 22.4217 20.5075 22.458L20.1223 22.6761C20.0903 22.6934 20.0496 22.7027 20.007 22.7027C20.0046 22.7027 20.0021 22.7027 19.9997 22.7027C19.9534 22.7038 19.9105 22.6945 19.8768 22.6761L19.4903 22.458C19.4246 22.4224 19.3709 22.3326 19.3709 22.2545L19.371 16.7317C19.3676 16.6912 19.3385 16.6419 19.3067 16.6233L13 12.8819V20.2102C12.9999 20.3741 13.1134 20.5765 13.2525 20.6593L19.7477 24.5632C19.8171 24.6047 19.9086 24.6253 20 24.625C20.0915 24.6247 20.1829 24.6053 20.2522 24.5633L26.7485 20.6593C26.887 20.5756 27.0002 20.3744 27 20.2102V12.8819L22.7258 15.4196Z" fill="white"/>
</g>
<defs>
<clipPath id="clip0_1637_5187">
<rect width="40" height="40" fill="white"/>
</clipPath>
</defs>
</svg>
