<svg width="40" height="40" viewBox="0 0 40 40" fill="none" xmlns="http://www.w3.org/2000/svg">
<g clip-path="url(#clip0_1637_5184)">
<path d="M20 38.8333L19.6326 39.1725L20 39.5705L20.3674 39.1725L20 38.8333ZM20 38.8333C20.3674 39.1725 20.3675 39.1724 20.3677 39.1722L20.3682 39.1716L20.3702 39.1694L20.3777 39.1612L20.4066 39.1297C20.4318 39.1021 20.469 39.0612 20.5172 39.0077C20.6138 38.9007 20.7548 38.7431 20.934 38.5394C21.2924 38.1319 21.8035 37.5399 22.4164 36.7993C23.6419 35.3185 25.2766 33.2412 26.9124 30.8557C28.5471 28.4716 30.1893 25.7707 31.4242 23.0435C32.6564 20.3225 33.5 17.5392 33.5 15C33.5 7.55219 27.4478 1.5 20 1.5C12.5522 1.5 6.5 7.55219 6.5 15C6.5 17.5392 7.34364 20.3225 8.57577 23.0435C9.81074 25.7707 11.4529 28.4716 13.0876 30.8557C14.7234 33.2412 16.3581 35.3185 17.5836 36.7993C18.1965 37.5399 18.7076 38.1319 19.066 38.5394C19.2452 38.7431 19.3862 38.9007 19.4828 39.0077C19.531 39.0612 19.5682 39.1021 19.5934 39.1297L19.6223 39.1612L19.6298 39.1694L19.6318 39.1716L19.6323 39.1722C19.6325 39.1724 19.6326 39.1725 20 38.8333Z" fill="#FFDD00" stroke="white"/>
<path d="M25.516 12.0876L25.5848 12.1536L25.516 12.0417V12.0876Z" fill="#231F20"/>
<path d="M25.4786 14.9406C25.4786 14.9119 25.4786 14.8861 25.4786 14.8574C25.4786 14.8832 25.4786 14.909 25.4786 14.9377C25.4932 15.6719 25.2614 16.3897 24.8201 16.9766C24.3787 17.5635 23.7534 17.9855 23.0441 18.1751H23.0699C23.7737 17.9803 24.3926 17.5565 24.8288 16.9708C25.2649 16.3851 25.4936 15.6707 25.4786 14.9406Z" fill="#231F20"/>
<path d="M25.4554 14.5593C25.4554 14.4962 25.4382 14.4389 25.4268 14.3787C25.4382 14.436 25.4468 14.4962 25.4554 14.5593Z" fill="#231F20"/>
<path d="M25.3975 17.2207L25.3201 17.2981C25.3373 17.2723 25.3717 17.2465 25.3975 17.2207Z" fill="#231F20"/>
<path d="M25.3869 14.1689C25.3869 14.1116 25.3611 14.0571 25.3468 13.9998C25.3611 14.0571 25.3755 14.1116 25.3869 14.1689Z" fill="#231F20"/>
<path d="M24.2857 18.4305C24.0962 18.4627 23.9045 18.48 23.7122 18.4821H23.4198C22.7195 18.517 22.0204 18.3925 21.3752 18.1179C20.7109 17.8939 20.1342 17.4659 19.7274 16.8948C19.3206 16.3238 19.1045 15.6389 19.1099 14.9378C19.0929 14.0752 19.4183 13.2411 20.0148 12.6177C20.6113 11.9944 21.4303 11.6326 22.2928 11.6115C22.8608 11.6164 23.4169 11.7746 23.9025 12.0694C24.388 12.3641 24.785 12.7845 25.0514 13.2862C25.6532 13.9294 25.9892 14.7767 25.9919 15.6576C25.9864 15.9874 25.9382 16.3151 25.8485 16.6325C25.7452 16.8038 25.6262 16.9651 25.493 17.1143C25.7404 16.8522 25.9291 16.5403 26.0464 16.1996C26.2178 15.7102 26.3051 15.1954 26.3045 14.6769C26.3058 13.7845 26.0553 12.9099 25.5819 12.1535L25.513 12.0875C25.0973 11.6599 24.6009 11.3189 24.0527 11.0841C23.5044 10.8493 22.915 10.7255 22.3186 10.7197C21.0985 10.7401 19.9362 11.2437 19.0868 12.1199C18.2374 12.9962 17.7703 14.1736 17.788 15.3938C17.7809 16.2614 18.012 17.1144 18.4561 17.8598L18.5048 17.9201C19.0937 18.4993 19.7838 18.9658 20.5408 19.2965C21.4843 19.7361 22.5108 19.9698 23.5517 19.9818C24.3426 19.9786 25.1276 19.8439 25.8744 19.5832C27.0768 18.751 28.07 17.6514 28.776 16.3708C29.482 15.0901 29.8816 13.6633 29.9434 12.2022C29.4329 14.588 27.1447 17.9831 24.2857 18.4305Z" fill="#231F20"/>
<path d="M13.6324 10.981C13.6345 10.6991 13.6537 10.4175 13.6897 10.1379C12.8832 10.1613 12.0831 10.2895 11.3097 10.5193C11.2382 10.5377 11.1746 10.5786 11.1281 10.6359C11.0816 10.6932 11.0548 10.7639 11.0516 10.8376C11.0516 10.8376 11 11.4341 11 11.8412C11.0093 13.447 11.4249 15.0243 12.2081 16.4262C12.9912 17.8281 14.1164 19.009 15.4789 19.8588C16.8414 20.7087 18.3969 21.1999 20.0003 21.2866C21.6038 21.3733 23.2032 21.0528 24.6494 20.3549C24.1464 20.4296 23.6378 20.4594 23.1296 20.4438C21.8846 20.4464 20.6512 20.2037 19.5 19.7295C18.3488 19.2553 17.3023 18.559 16.4203 17.6802C15.5384 16.8014 14.8382 15.7574 14.3598 14.608C13.8814 13.4585 13.6343 12.226 13.6324 10.981Z" fill="#231F20"/>
<path d="M17.8153 18.0291C18.215 18.4461 18.6614 18.8156 19.1458 19.1302C18.6614 18.8156 18.215 18.4461 17.8153 18.0291Z" fill="#231F20"/>
<path d="M23.6169 20.4116C22.4247 20.4192 21.245 20.1688 20.1587 19.6775C21.245 20.1688 22.4247 20.4192 23.6169 20.4116Z" fill="#231F20"/>
<path d="M23.6177 20.4118C23.9618 20.4118 24.3346 20.386 24.65 20.3545C24.303 20.386 23.9618 20.4118 23.6177 20.4118Z" fill="url(#paint0_linear_1637_5184)"/>
<path d="M23.6176 20.4121C22.4254 20.4197 21.2457 20.1693 20.1594 19.678C19.8101 19.5187 19.4736 19.3327 19.1529 19.1217C18.6669 18.8101 18.2186 18.4435 17.8166 18.0292C17.1217 17.3013 16.5684 16.4505 16.185 15.5201C15.7222 14.4606 15.4783 13.3184 15.4681 12.1622C15.4656 11.5947 15.5233 11.0286 15.6402 10.4733C15.6402 10.4048 15.613 10.3392 15.5646 10.2908C15.5162 10.2424 15.4506 10.2152 15.3821 10.2152C15.2301 10.1922 15.0782 10.1779 14.9233 10.1636C14.7685 10.1492 14.6194 10.1349 14.4674 10.1292H14.4416C14.1835 10.1292 13.9312 10.1292 13.6845 10.1292C13.6485 10.4088 13.6293 10.6903 13.6272 10.9722C13.6291 12.2168 13.8761 13.4488 14.3541 14.5979C14.8321 15.747 15.5318 16.7907 16.4131 17.6694C17.2945 18.5481 18.3403 19.2446 19.4908 19.7191C20.6414 20.1936 21.8741 20.4369 23.1187 20.435C23.6269 20.4506 24.1355 20.4208 24.6385 20.3461C24.323 20.3777 23.9503 20.4035 23.6062 20.4035L23.6176 20.4121Z" fill="#231F20"/>
<path d="M23.6176 20.4121C22.4254 20.4197 21.2457 20.1693 20.1594 19.678C19.8101 19.5187 19.4736 19.3327 19.1529 19.1217C18.6669 18.8101 18.2186 18.4435 17.8166 18.0292C17.1217 17.3013 16.5684 16.4505 16.185 15.5201C15.7222 14.4606 15.4783 13.3184 15.4681 12.1622C15.4656 11.5947 15.5233 11.0286 15.6402 10.4733C15.6402 10.4048 15.613 10.3392 15.5646 10.2908C15.5162 10.2424 15.4506 10.2152 15.3821 10.2152C15.2301 10.1922 15.0782 10.1779 14.9233 10.1636C14.7685 10.1492 14.6194 10.1349 14.4674 10.1292H14.4416C14.1835 10.1292 13.9312 10.1292 13.6845 10.1292C13.6485 10.4088 13.6293 10.6903 13.6272 10.9722C13.6291 12.2168 13.8761 13.4488 14.3541 14.5979C14.8321 15.747 15.5318 16.7907 16.4131 17.6694C17.2945 18.5481 18.3403 19.2446 19.4908 19.7191C20.6414 20.1936 21.8741 20.4369 23.1187 20.435C23.6269 20.4506 24.1355 20.4208 24.6385 20.3461C24.323 20.3777 23.9503 20.4035 23.6062 20.4035L23.6176 20.4121Z" fill="url(#paint1_linear_1637_5184)"/>
<path d="M25.4951 17.1145L25.3976 17.2206L25.4951 17.1145Z" fill="url(#paint2_linear_1637_5184)"/>
<path d="M25.4266 14.3788C25.4266 14.3071 25.4037 14.2383 25.3865 14.1694C25.4037 14.2383 25.4152 14.3013 25.4266 14.3788Z" fill="url(#paint3_linear_1637_5184)"/>
<path d="M24.386 17.8884C23.9585 18.0367 23.5146 18.133 23.0641 18.1752H23.0411C23.5002 18.1335 23.9526 18.0373 24.3889 17.8884C24.7355 17.7524 25.0521 17.5498 25.3208 17.292C25.0507 17.5494 24.7332 17.7519 24.386 17.8884Z" fill="url(#paint4_linear_1637_5184)"/>
<path d="M25.0195 13.2485C25.1605 13.4878 25.2676 13.7455 25.3378 14.0142C25.2691 13.7662 25.1729 13.5267 25.0511 13.3002L25.0195 13.2485Z" fill="url(#paint5_linear_1637_5184)"/>
<path d="M25.4719 14.8573C25.4719 14.7569 25.4719 14.6566 25.4547 14.5706C25.4633 14.6566 25.469 14.7569 25.4719 14.8573Z" fill="url(#paint6_linear_1637_5184)"/>
<path d="M25.8508 16.632C25.9405 16.3146 25.9887 15.9869 25.9942 15.6571C25.9907 14.7758 25.6536 13.9285 25.0508 13.2856C25.1736 13.5168 25.2698 13.7611 25.3375 14.014C25.3375 14.0713 25.3662 14.1258 25.3777 14.1832C25.3892 14.2405 25.4064 14.3208 25.4178 14.3925C25.4293 14.4642 25.4379 14.5101 25.4465 14.5732C25.4551 14.6362 25.4608 14.771 25.4637 14.8599C25.4637 14.8886 25.4637 14.9144 25.4637 14.9431C25.4779 15.6711 25.2499 16.3833 24.8155 16.9677C24.3811 17.5521 23.7649 17.9757 23.0636 18.1719C23.5141 18.1297 23.958 18.0334 24.3855 17.8851C24.7323 17.7504 25.0497 17.5498 25.3203 17.2944L25.3978 17.217L25.4953 17.1109C25.6283 16.9626 25.7473 16.8023 25.8508 16.632Z" fill="#231F20"/>
<path d="M25.8508 16.632C25.9405 16.3146 25.9887 15.9869 25.9942 15.6571C25.9907 14.7758 25.6536 13.9285 25.0508 13.2856C25.1736 13.5168 25.2698 13.7611 25.3375 14.014C25.3375 14.0713 25.3662 14.1258 25.3777 14.1832C25.3892 14.2405 25.4064 14.3208 25.4178 14.3925C25.4293 14.4642 25.4379 14.5101 25.4465 14.5732C25.4551 14.6362 25.4608 14.771 25.4637 14.8599C25.4637 14.8886 25.4637 14.9144 25.4637 14.9431C25.4779 15.6711 25.2499 16.3833 24.8155 16.9677C24.3811 17.5521 23.7649 17.9757 23.0636 18.1719C23.5141 18.1297 23.958 18.0334 24.3855 17.8851C24.7323 17.7504 25.0497 17.5498 25.3203 17.2944L25.3978 17.217L25.4953 17.1109C25.6283 16.9626 25.7473 16.8023 25.8508 16.632Z" fill="url(#paint7_linear_1637_5184)"/>
<path d="M18.699 11.2585C18.2372 11.6998 17.8699 12.2303 17.6195 12.8179C17.3691 13.4055 17.2408 14.0379 17.2423 14.6766C17.233 15.8645 17.6735 17.0119 18.4754 17.8882L18.4582 17.8596C17.6388 16.9419 17.2063 15.7428 17.2512 14.5134C17.2961 13.284 17.8149 12.1197 18.699 11.2643V11.2585Z" fill="url(#paint8_linear_1637_5184)"/>
<path d="M25.5156 12.0417C25.1153 11.4193 24.5661 10.9066 23.9176 10.5501C23.2692 10.1936 22.5421 10.0045 21.8021 10V10C22.5413 10.0084 23.267 10.1991 23.9148 10.5552C24.5626 10.9114 25.1125 11.422 25.5156 12.0417Z" fill="url(#paint9_linear_1637_5184)"/>
<path d="M22.3181 10.7197C22.915 10.7251 23.5049 10.8488 24.0537 11.0836C24.6025 11.3183 25.0993 11.6596 25.5154 12.0875V12.0416C25.1606 11.4891 24.6875 11.0224 24.1302 10.6752C23.5728 10.328 22.9453 10.109 22.293 10.0341C21.6407 9.95914 20.9798 10.0302 20.3583 10.242C19.7368 10.4538 19.1701 10.8011 18.6993 11.2588C17.8152 12.1142 17.2964 13.2786 17.2515 14.508C17.2066 15.7374 17.6391 16.9365 18.4585 17.8541C18.0134 17.109 17.7813 16.256 17.7875 15.388C17.7714 14.1688 18.2391 12.9929 19.0884 12.1179C19.9376 11.2429 21.099 10.7401 22.3181 10.7197Z" fill="#231F20"/>
<path d="M22.3181 10.7197C22.915 10.7251 23.5049 10.8488 24.0537 11.0836C24.6025 11.3183 25.0993 11.6596 25.5154 12.0875V12.0416C25.1606 11.4891 24.6875 11.0224 24.1302 10.6752C23.5728 10.328 22.9453 10.109 22.293 10.0341C21.6407 9.95914 20.9798 10.0302 20.3583 10.242C19.7368 10.4538 19.1701 10.8011 18.6993 11.2588C17.8152 12.1142 17.2964 13.2786 17.2515 14.508C17.2066 15.7374 17.6391 16.9365 18.4585 17.8541C18.0134 17.109 17.7813 16.256 17.7875 15.388C17.7714 14.1688 18.2391 12.9929 19.0884 12.1179C19.9376 11.2429 21.099 10.7401 22.3181 10.7197Z" fill="url(#paint10_linear_1637_5184)"/>
<path d="M26.6706 16.7676C26.172 17.3072 25.5829 17.7555 24.93 18.0924L24.8899 18.1124H24.91C25.5721 17.7724 26.1683 17.3169 26.6706 16.7676Z" fill="#231F20"/>
<path d="M24.3429 18.3159C24.155 18.3728 23.9633 18.4169 23.7694 18.4478C23.9633 18.4222 24.1551 18.382 24.3429 18.3274V18.3159Z" fill="url(#paint11_linear_1637_5184)"/>
<path d="M29.805 11.4337C29.4301 11.2923 29.0289 11.2345 28.6293 11.2646C28.4859 11.2904 28.4286 11.3506 28.4286 11.5198C28.4517 11.7206 28.4613 11.9227 28.4573 12.1248C28.471 13.8427 27.8326 15.5018 26.6708 16.7673C26.1685 17.3167 25.5723 17.7721 24.9102 18.1122H24.8901H24.8729C24.6997 18.1906 24.5215 18.2577 24.3395 18.3129L24.285 18.4247C27.1526 17.9774 29.4466 14.5909 29.9426 12.1965C29.9426 12.1506 29.9426 12.1076 29.9426 12.0646C29.9633 12.0303 29.9769 11.9923 29.9828 11.9528C29.9828 11.8696 30 11.7778 30 11.7234V11.7205C29.9953 11.6732 29.9837 11.6268 29.9656 11.5829C29.9306 11.5163 29.874 11.4637 29.805 11.4337Z" fill="#231F20"/>
<path d="M29.805 11.4337C29.4301 11.2923 29.0289 11.2345 28.6293 11.2646C28.4859 11.2904 28.4286 11.3506 28.4286 11.5198C28.4517 11.7206 28.4613 11.9227 28.4573 12.1248C28.471 13.8427 27.8326 15.5018 26.6708 16.7673C26.1685 17.3167 25.5723 17.7721 24.9102 18.1122H24.8901H24.8729C24.6997 18.1906 24.5215 18.2577 24.3395 18.3129L24.285 18.4247C27.1526 17.9774 29.4466 14.5909 29.9426 12.1965C29.9426 12.1506 29.9426 12.1076 29.9426 12.0646C29.9633 12.0303 29.9769 11.9923 29.9828 11.9528C29.9828 11.8696 30 11.7778 30 11.7234V11.7205C29.9953 11.6732 29.9837 11.6268 29.9656 11.5829C29.9306 11.5163 29.874 11.4637 29.805 11.4337Z" fill="url(#paint12_linear_1637_5184)"/>
<path d="M23.7233 18.4818C23.9155 18.4797 24.1073 18.4624 24.2968 18.4302L24.3513 18.3184C24.1634 18.373 23.9717 18.4132 23.7778 18.4388C23.6612 18.4602 23.5434 18.4745 23.425 18.4818H23.729H23.7233Z" fill="#231F20"/>
<path d="M23.7233 18.4818C23.9155 18.4797 24.1073 18.4624 24.2968 18.4302L24.3513 18.3184C24.1634 18.373 23.9717 18.4132 23.7778 18.4388C23.6612 18.4602 23.5434 18.4745 23.425 18.4818H23.729H23.7233Z" fill="url(#paint13_linear_1637_5184)"/>
<path d="M23.4193 18.4817C23.5376 18.4745 23.6554 18.4601 23.772 18.4387C23.6554 18.4597 23.5378 18.4741 23.4193 18.4817Z" fill="#231F20"/>
<path d="M23.4193 18.4817C23.5376 18.4745 23.6554 18.4601 23.772 18.4387C23.6554 18.4597 23.5378 18.4741 23.4193 18.4817Z" fill="url(#paint14_linear_1637_5184)"/>
</g>
<defs>
<linearGradient id="paint0_linear_1637_5184" x1="-1066.37" y1="43.4765" x2="-1065.78" y2="43.4765" gradientUnits="userSpaceOnUse">
<stop stop-color="#6E6F71"/>
<stop offset="0.34" stop-color="#231F20"/>
<stop offset="1" stop-color="#231F20"/>
</linearGradient>
<linearGradient id="paint1_linear_1637_5184" x1="12.9344" y1="14.9547" x2="23.8364" y2="14.9547" gradientUnits="userSpaceOnUse">
<stop stop-color="#6E6F71"/>
<stop offset="0.34" stop-color="#231F20"/>
<stop offset="1" stop-color="#231F20"/>
</linearGradient>
<linearGradient id="paint2_linear_1637_5184" x1="23.1478" y1="17.2226" x2="26.0834" y2="17.2226" gradientUnits="userSpaceOnUse">
<stop stop-color="#6E6F71"/>
<stop offset="0.28" stop-color="#6E6F71"/>
<stop offset="1" stop-color="#231F20"/>
</linearGradient>
<linearGradient id="paint3_linear_1637_5184" x1="-15.6272" y1="92.9273" x2="-15.6043" y2="92.9273" gradientUnits="userSpaceOnUse">
<stop stop-color="#6E6F71"/>
<stop offset="0.28" stop-color="#6E6F71"/>
<stop offset="1" stop-color="#231F20"/>
</linearGradient>
<linearGradient id="paint4_linear_1637_5184" x1="-2305.9" y1="348.985" x2="-2304.6" y2="348.985" gradientUnits="userSpaceOnUse">
<stop stop-color="#6E6F71"/>
<stop offset="0.28" stop-color="#6E6F71"/>
<stop offset="1" stop-color="#231F20"/>
</linearGradient>
<linearGradient id="paint5_linear_1637_5184" x1="-300.153" y1="301.4" x2="-299.972" y2="301.4" gradientUnits="userSpaceOnUse">
<stop stop-color="#6E6F71"/>
<stop offset="0.28" stop-color="#6E6F71"/>
<stop offset="1" stop-color="#231F20"/>
</linearGradient>
<linearGradient id="paint6_linear_1637_5184" x1="7.87741" y1="122.432" x2="7.88721" y2="122.432" gradientUnits="userSpaceOnUse">
<stop stop-color="#6E6F71"/>
<stop offset="0.28" stop-color="#6E6F71"/>
<stop offset="1" stop-color="#231F20"/>
</linearGradient>
<linearGradient id="paint7_linear_1637_5184" x1="-2970.87" y1="1850.27" x2="-2969.2" y2="1850.27" gradientUnits="userSpaceOnUse">
<stop stop-color="#6E6F71"/>
<stop offset="0.28" stop-color="#6E6F71"/>
<stop offset="1" stop-color="#231F20"/>
</linearGradient>
<linearGradient id="paint8_linear_1637_5184" x1="130459" y1="-58500" x2="130459" y2="-58459.7" gradientUnits="userSpaceOnUse">
<stop stop-color="#6E6F71"/>
<stop offset="0.34" stop-color="#231F20"/>
<stop offset="1" stop-color="#231F20"/>
</linearGradient>
<linearGradient id="paint9_linear_1637_5184" x1="36131.2" y1="-171694" x2="36131.2" y2="-171592" gradientUnits="userSpaceOnUse">
<stop stop-color="#6E6F71"/>
<stop offset="0.34" stop-color="#231F20"/>
<stop offset="1" stop-color="#231F20"/>
</linearGradient>
<linearGradient id="paint10_linear_1637_5184" x1="21.493" y1="9.5964" x2="21.8965" y2="19.2823" gradientUnits="userSpaceOnUse">
<stop stop-color="#6E6F71"/>
<stop offset="0.34" stop-color="#231F20"/>
<stop offset="1" stop-color="#231F20"/>
</linearGradient>
<linearGradient id="paint11_linear_1637_5184" x1="26.6882" y1="11.5012" x2="22.828" y2="19.7804" gradientUnits="userSpaceOnUse">
<stop stop-color="#6E6F71"/>
<stop offset="0.98" stop-color="#231F20"/>
<stop offset="1" stop-color="#231F20"/>
</linearGradient>
<linearGradient id="paint12_linear_1637_5184" x1="28.024" y1="11.7508" x2="25.4678" y2="16.1738" gradientUnits="userSpaceOnUse">
<stop stop-color="#6E6F71"/>
<stop offset="0.98" stop-color="#231F20"/>
<stop offset="1" stop-color="#231F20"/>
</linearGradient>
<linearGradient id="paint13_linear_1637_5184" x1="-177.293" y1="23.1058" x2="182.788" y2="23.1058" gradientUnits="userSpaceOnUse">
<stop stop-color="#6E6F71"/>
<stop offset="0.98" stop-color="#231F20"/>
<stop offset="1" stop-color="#231F20"/>
</linearGradient>
<linearGradient id="paint14_linear_1637_5184" x1="-53.0153" y1="19.708" x2="84.1056" y2="19.708" gradientUnits="userSpaceOnUse">
<stop stop-color="#6E6F71"/>
<stop offset="0.98" stop-color="#231F20"/>
<stop offset="1" stop-color="#231F20"/>
</linearGradient>
<clipPath id="clip0_1637_5184">
<rect width="40" height="40" fill="white"/>
</clipPath>
</defs>
</svg>
