<svg width="24" height="24" viewBox="0 0 24 24" fill="none" xmlns="http://www.w3.org/2000/svg">
<path fill-rule="evenodd" clip-rule="evenodd" d="M0.405544 0.405544C0.94627 -0.135181 1.82296 -0.135181 2.36369 0.405544L12 10.0419L21.6363 0.405544C22.177 -0.135181 23.0537 -0.135181 23.5945 0.405544C24.1352 0.94627 24.1352 1.82296 23.5945 2.36369L13.9581 12L23.5945 21.6363C24.1352 22.177 24.1352 23.0537 23.5945 23.5945C23.0537 24.1352 22.177 24.1352 21.6363 23.5945L12 13.9581L2.36369 23.5945C1.82296 24.1352 0.94627 24.1352 0.405544 23.5945C-0.135181 23.0537 -0.135181 22.177 0.405544 21.6363L10.0419 12L0.405544 2.36369C-0.135181 1.82296 -0.135181 0.94627 0.405544 0.405544Z" fill="#F6F8FB"/>
</svg>
