<svg width="40" height="40" viewBox="0 0 40 40" fill="none" xmlns="http://www.w3.org/2000/svg">
<g clip-path="url(#clip0_1637_5181)">
<path d="M20 38.8333L19.6326 39.1725L20 39.5705L20.3674 39.1725L20 38.8333ZM20 38.8333C20.3674 39.1725 20.3675 39.1724 20.3677 39.1722L20.3682 39.1716L20.3702 39.1694L20.3777 39.1612L20.4066 39.1297C20.4318 39.1021 20.469 39.0612 20.5172 39.0077C20.6138 38.9007 20.7548 38.7431 20.934 38.5394C21.2924 38.1319 21.8035 37.5399 22.4164 36.7993C23.6419 35.3185 25.2766 33.2412 26.9124 30.8557C28.5471 28.4716 30.1893 25.7707 31.4242 23.0435C32.6564 20.3225 33.5 17.5392 33.5 15C33.5 7.55219 27.4478 1.5 20 1.5C12.5522 1.5 6.5 7.55219 6.5 15C6.5 17.5392 7.34364 20.3225 8.57577 23.0435C9.81074 25.7707 11.4529 28.4716 13.0876 30.8557C14.7234 33.2412 16.3581 35.3185 17.5836 36.7993C18.1965 37.5399 18.7076 38.1319 19.066 38.5394C19.2452 38.7431 19.3862 38.9007 19.4828 39.0077C19.531 39.0612 19.5682 39.1021 19.5934 39.1297L19.6223 39.1612L19.6298 39.1694L19.6318 39.1716L19.6323 39.1722C19.6325 39.1724 19.6326 39.1725 20 38.8333Z" fill="#FF6600" stroke="white"/>
<path d="M14.7452 23C11.0849 19.3398 11.0849 13.4054 14.7452 9.74516V20.2548H28C24.3398 23.9151 18.4054 23.9151 14.7452 20.2548V23Z" fill="white"/>
<path d="M25.2548 9.74513V7.00001C28.9151 10.6602 28.9151 16.5946 25.2548 20.2548V9.74513H12C15.6602 6.08496 21.5946 6.08496 25.2548 9.74513Z" fill="white"/>
</g>
<defs>
<clipPath id="clip0_1637_5181">
<rect width="40" height="40" fill="white"/>
</clipPath>
</defs>
</svg>
